<?xml version="1.0" encoding="UTF-8" standalone="no"?>
<!DOCTYPE svg PUBLIC "-//W3C//DTD SVG 1.1//EN" "http://www.w3.org/Graphics/SVG/1.1/DTD/svg11.dtd">
<svg width="100%" height="100%" viewBox="0 0 4000 2000" version="1.1" xmlns="http://www.w3.org/2000/svg" xmlns:xlink="http://www.w3.org/1999/xlink" xml:space="preserve" xmlns:serif="http://www.serif.com/" style="fill-rule:evenodd;clip-rule:evenodd;stroke-linecap:round;stroke-linejoin:round;stroke-miterlimit:1.5;">
    <g transform="matrix(0.95,0,0,0.95,50,50)">
        <circle cx="1000" cy="1000" r="1000" style="fill:white;"/>
        <g transform="matrix(1.18799,0,0,1.18799,-121.463,-178.487)">
            <circle cx="944" cy="992" r="731"/>
        </g>
        <g transform="matrix(0.473817,0.473817,-0.473817,0.473817,1000,52.3666)">
            <g transform="matrix(0.779783,0,0,0.779783,259.206,289.617)">
                <path d="M396,357L1504,1465" style="fill:none;stroke:white;stroke-width:268.61px;"/>
            </g>
            <g transform="matrix(-0.779783,0,0,0.779783,1740.79,289.617)">
                <path d="M396,357L1504,1465" style="fill:none;stroke:white;stroke-width:268.61px;"/>
            </g>
        </g>
    </g>
    <g transform="matrix(0.95,0,0,0.95,150,50)">
        <g transform="matrix(1,0,0,1,2000,0)">
            <circle cx="1000" cy="1000" r="1000"/>
        </g>
        <g transform="matrix(1.18799,0,0,1.18799,1878.54,-178.487)">
            <circle cx="944" cy="992" r="731" style="fill:white;"/>
        </g>
        <g transform="matrix(0.473817,0.473817,-0.473817,0.473817,3000,52.3666)">
            <g transform="matrix(0.779783,0,0,0.779783,259.206,289.617)">
                <path d="M396,357L1504,1465" style="fill:none;stroke:black;stroke-width:268.61px;"/>
            </g>
            <g transform="matrix(-0.779783,0,0,0.779783,1740.79,289.617)">
                <path d="M396,357L1504,1465" style="fill:none;stroke:black;stroke-width:268.61px;"/>
            </g>
        </g>
    </g>
</svg>
